<svg width="81" height="80" viewBox="0 0 81 80" fill="none" xmlns="http://www.w3.org/2000/svg">
<path d="M40.2251 0C18.0113 0 0 17.9062 0 40C0 62.0938 18.0113 80 40.2251 80C62.439 80 80.4503 62.0938 80.4503 40C80.4503 17.9062 62.439 0 40.2251 0ZM67.7674 67.3771C64.1876 70.9343 60.0225 73.7261 55.3846 75.6773C50.5816 77.6961 45.4784 78.7242 40.2251 78.7242C34.9719 78.7242 29.8612 77.6961 25.0657 75.6773C20.4278 73.7261 16.2627 70.9343 12.6829 67.3771C9.10319 63.8199 6.29644 59.6773 4.33771 55.0694C2.30394 50.2964 1.2758 45.2308 1.2758 40C1.2758 34.7692 2.30394 29.7036 4.33771 24.9306C6.29644 20.3227 9.10319 16.1801 12.6829 12.6229C16.2627 9.06567 20.4278 6.27392 25.0657 4.3227C29.8687 2.30394 34.9719 1.2758 40.2251 1.2758C45.4784 1.2758 50.5891 2.29644 55.3846 4.3227C60.0225 6.27392 64.1876 9.06567 67.7674 12.6229C69.3133 14.1614 70.7242 15.8124 71.9775 17.561C67.3771 20.758 63.2946 20.7655 61.1107 18.1238C60.5253 17.4109 60.848 16.5478 60.4203 15.4597C60.4203 15.4597 60.4428 15.2495 59.6473 15.4597C58.8443 15.6698 56.7054 18.2064 55.97 19.4146C55.2345 20.6229 54.9043 22.3039 52.1651 24.1201C48.0225 24.6979 45.8311 22.9418 46.8893 18.6417C47.137 17.636 47.3771 16.3527 49.0281 14.5291C50.394 12.5629 50.6567 12.3752 52.1201 11.0619C52.1201 11.0619 52.8781 10.9644 52.9456 10.2364C53.0131 9.50844 52.8931 9.33584 52.3677 8.88555C51.8424 8.44278 49.3659 8.22514 48.4128 9.33584C47.1895 9.61351 46.0113 9.36585 45.8312 9.23827C45.651 9.10319 45.0582 7.15197 44.5403 6.91182C44.0225 6.67167 43.3171 6.91932 42.1614 6.99437C41.2458 7.0469 40.3752 7.2045 40.2251 7.03189C39.8349 5.88368 40.2552 3.66979 38.9493 2.13133C38.8518 2.05629 38.5591 1.88368 38.3265 2.13133C36.1951 6.394 33.5835 7.72983 29.591 6.73171C28.9831 6.73921 29.0131 7.66979 29.3433 8.06004C29.8612 8.4728 30.2364 8.69794 30.4615 9.34334C31.3471 11.9024 30.4015 14.0263 28.1726 14.3039C27.5422 14.379 27.152 14.2139 26.0188 13.7636C26.0188 13.7636 25.3058 13.561 25.1932 13.666C25.0807 13.7636 24.8781 14.5966 25.1932 15.4146C25.5084 16.1801 26.6492 17.0507 26.8668 17.8537C27.9925 21.8837 25.8537 24.4878 21.9887 23.2195C20.5403 22.7467 20.9081 22.3565 20.015 21.9962C20.015 21.9962 19.0919 21.4259 18.4916 21.4484C16.075 22.6867 14.6266 22.7692 13.2383 22.3265C11.7448 21.8462 8.7955 20.5403 8.45779 20.2777C8.12758 20.0075 7.50469 20.2326 7.23452 20.5028C7.63978 23.5347 6.04128 25.8537 3.70732 27.6173C3.61726 27.7448 3.61726 27.8724 3.70732 27.94C5.29081 29.6135 6.85929 31.2645 7.06191 32.7129C7.06942 33.8687 6.29644 34.9794 5.4334 35.4071C5.07317 36.3227 5.26829 36.6979 5.41088 36.9531C6.48405 37.681 8.46529 38.0638 9.62852 39.0244C14.0863 42.6717 14.4615 47.0019 10.379 50.5216C9.05066 51.6623 4.97561 53.2758 4.81051 53.3959C4.72045 53.651 4.66041 54.3114 4.75797 54.7167C10.3265 54.5366 14.8443 57.6135 15.6923 63.7298C15.9325 64.2702 16.0525 64.0976 16.4428 63.955C19.3846 61.4709 22.0413 61.6135 23.8274 64.1351C25.5385 65.6735 26.2214 66.0638 26.6041 67.8049C26.7017 68 26.9719 68.045 27.3471 67.8049C30.379 63.97 33.0056 61.7186 36.4428 61.7486L36.1801 63.5197C36.1801 63.5197 36.1501 64.2251 35.7148 65.1782C35.4447 65.7711 35.0994 65.7261 34.8968 66.0863C34.2964 67.182 33.2308 68.4053 31.5272 70.0488C30.0563 71.4672 28.2777 72.818 27.925 73.2908C27.5722 73.7636 27.6998 75.5272 28.06 76.0675C28.4503 76.6679 29.1107 76.5779 29.8011 76.4428C30.4916 76.3077 36.833 69.3884 36.8931 67.9024C37.1857 66.409 37.5084 65.2608 37.7411 64.4653C37.8912 63.9625 37.9662 63.137 38.0038 62.3039C39.0469 62.424 40.4128 63.2795 40.6604 63.9625C40.8931 64.5929 44.833 67.4371 46.439 68.0375C48.045 68.6379 50.2589 68.5103 50.5066 68.4653C51.3996 69.3283 52.9756 71.1595 53.1707 71.3321C53.3659 71.5047 53.9812 71.4747 54.2214 71.0694C54.4615 70.6642 54.0563 69.2308 53.7261 69.2383C53.2233 69.2458 53.3358 67.5797 53.4484 67.4071C53.561 67.2345 53.9137 67.5047 53.9362 67.2645C53.9888 66.7767 55.8424 63.7824 56.2477 63.5872C56.4803 63.4747 58.2514 63.4972 59.5197 64.1126C60.4203 64.5478 61.1107 66.0338 61.3508 66.1764C61.591 66.3189 62.0638 66.3415 62.2139 66.2364C62.364 66.1313 62.4615 66.0338 62.5141 65.8612C62.5666 65.6886 62.439 65.4259 62.2739 64.8255C62.0488 59.9325 66.4916 56.5553 73.3809 55.8949C73.531 55.5872 73.8161 55.227 73.3809 54.7767C64.1351 50.3265 63.0394 43.3546 70.8443 37.5985C72.2852 36.5328 75.8274 35.2045 75.97 34.9719C76.1126 34.7392 76.1651 34.2889 75.97 34.0713C75.7749 33.8537 74.4315 34.2964 73.0432 33.9212C72.6529 33.8161 71.6323 33.576 71.0319 32.6979C70.5141 31.9475 70.349 30.6567 70.7317 29.531C71.0244 28.6679 71.6548 27.6473 72.5178 27.0544C73.8011 26.1689 75.2721 26.1088 75.3771 25.9137C75.4822 25.7186 75.5647 25.3659 75.3771 25.1182C75.1895 24.863 74.1839 25.0281 73.576 24.863C72.9681 24.6979 71.2796 23.4221 71.1745 21.9137C71.0844 20.6079 72.2101 19.227 72.7355 18.6567C74.0488 20.6304 75.182 22.7242 76.1201 24.9306C78.1539 29.7036 79.182 34.7692 79.182 40C79.182 45.2308 78.1539 50.2964 76.1201 55.0694C74.1539 59.6773 71.3471 63.8199 67.7674 67.3771ZM64.4278 48.3302C64.4653 49.1632 64.9831 49.1482 65.0657 49.4559C65.0657 49.4559 63.7824 50.1764 63.7148 51.0244C63.6473 51.8724 64.7505 50.8293 64.9681 50.6942C65.1857 50.5591 65.7336 50.6792 65.9437 50.8368C66.1539 51.0019 69.9062 53.9137 69.621 54.2064C69.4634 54.3715 60.6154 55.8874 60.1876 56.0901C60.015 56.1726 60.1501 56.2251 60.3903 56.5629C60.6229 56.9006 66.5366 55.8949 70.3715 54.5816C70.4615 54.5891 70.8443 55.1069 70.8443 55.1069C64.5854 55.6098 62.8218 58.4916 61.6886 61.7111C61.6886 61.7111 61.5235 61.8161 61.2158 61.5835C60.9081 61.3508 59.3021 58.439 59.137 58.1839C58.9794 57.9212 58.9193 57.6435 58.4615 57.7936C58.0038 57.9437 58.1539 58.5216 58.2589 58.8893C58.3715 59.2495 59.3996 60.773 59.8124 61.2383C60.2251 61.7036 61.2533 62.5441 61.2758 62.7092C61.2908 62.8818 61.1707 63.4146 60.9906 63.5647C60.803 63.7148 60.6904 63.0394 60.4878 62.8668C60.2927 62.6942 58.5741 62.6942 56.788 62.319C55.0019 61.9437 52.3227 60.5178 49.8086 58.8893C47.94 60.03 43.5422 60.5629 38.0263 60.833C38.0263 60.3677 38.0188 59.985 38.0113 59.7824C38.4766 59.7974 38.9418 59.8124 39.4146 59.8124C53.1407 59.8124 64.2702 51.8199 64.2702 41.9662C64.2702 39.8874 63.7749 37.8987 62.8668 36.045C63.4071 36.2777 64.6154 36.758 65.6585 36.803C67.0469 36.863 67.1295 36.4578 67.8124 36.4053C68.4878 36.3527 69.7636 36.5253 69.7636 36.5253C65.2308 39.8124 63.5797 43.8724 64.4278 48.3302ZM49.3058 64.4503C49.7111 65.4559 51.9175 67.2045 52.3752 67.4447C52.6304 67.5797 52.6154 68.0826 52.4128 68.2777C52.2026 68.4728 51.3471 67.9625 51.0919 67.5347C50.8368 67.1144 49.9062 66.7692 48.5854 66.4916C47.4447 66.2514 46.0713 66.2814 45.7036 66.1538C44.9081 65.8837 41.9512 63.3996 40.4353 61.591C43.7073 61.4409 46.6942 61.1557 49.0657 60.6004C48.9456 62.0113 48.9006 63.4447 49.3058 64.4503ZM49.7336 60.6004C49.7336 60.6004 50.1088 60.5103 50.8068 60.6004C51.8649 61.2833 53.2458 62.1614 55.5872 62.9869C54.319 63.7148 53.2533 65.1482 52.6604 66.5741C50.7242 65.531 49.621 63.6548 49.7336 60.6004ZM32.6079 59.4822C30.9944 59.0994 29.0732 58.7542 28.818 58.9644C28.6904 59.0769 28.7205 60.5403 28.0225 61.666C27.3396 62.7617 25.9362 63.5122 25.8161 63.5797C25.5835 63.7148 25.0432 62.4315 23.955 61.9062C23.5047 61.6886 22.334 61.0281 21.0356 60.9606C19.212 60.863 17.2833 61.9287 17.2158 61.4184C17.1857 61.1632 18.2289 60.2402 19.0469 59.1595C19.8649 58.0788 20.4578 56.848 20.3677 56.5629C20.1876 55.9925 18.7167 55.97 16.833 55.4447C16.1651 55.257 15.3321 54.6116 14.1313 54.3565C11.925 53.8912 9.00563 53.9512 8.88555 53.6135C8.77298 53.2983 11.2195 52.06 12.818 50.5366C13.8837 49.5235 14.2214 48.0826 14.439 47.7824C14.7842 47.3021 15.3096 47.2045 15.6398 47.197C18.5066 53.9062 26.7242 58.9268 36.7205 59.6998L36.6079 60.4803C36.2777 60.4878 35.7749 60.4953 35.2495 60.4428C34.8368 60.4128 34.0113 59.8199 32.6079 59.4822ZM34.0188 60.848C34.0188 61.1632 32.863 60.9081 32.2777 61.2458C31.6923 61.5835 30.8593 61.8086 29.8687 62.6417C29.3358 63.0919 29.1032 63.7298 28.6679 64.1951C27.97 64.9381 27.2045 65.4184 27.152 65.4034C27.0019 65.3508 26.4465 64.5929 26.4916 64.4578C26.5366 64.3227 26.8443 64.2251 27.3546 63.8049C27.7073 63.5122 28.4728 62.9869 28.9381 62.0338C29.3358 61.2158 29.3433 59.9625 29.4334 59.9024C29.6285 59.7749 34.0188 60.5328 34.0188 60.848ZM16.3077 60.6604C16.1426 60.6904 15.7523 59.212 14.9719 57.9662C14.1163 56.5854 12.8705 55.4296 12.9381 55.2871C12.9756 55.212 13.8462 55.2195 14.5516 55.4822C15.152 55.6998 15.5272 56.1501 16.2477 56.3527C17.666 56.743 19.0244 56.788 19.0919 56.9381C19.1595 57.0882 18.7467 57.9737 18.1238 58.8068C17.4334 59.7373 16.4953 60.6229 16.3077 60.6604ZM31.9325 10.2064C31.8724 10.1313 31.7073 10.0788 31.6698 9.7561C31.6173 9.26829 31.7223 8.46529 31.7223 8.46529C34.364 8.26266 36.3077 7.32458 37.5985 5.70356L37.0732 16.863C35.8499 17.2383 34.3039 15.7373 33.5985 14.4991C33.2983 14.3265 33.1257 14.5666 32.9606 14.4991C32.8931 14.469 32.773 13.9587 32.5178 13.6585C32.1351 13.2158 31.7073 13.0882 31.6023 12.9456C31.5422 12.8705 31.5347 12.2552 31.6173 11.8349C31.6923 11.4897 31.7448 11.5347 31.8499 11.3246C31.955 11.122 32.0826 10.394 31.9325 10.2064ZM46.2139 10.8293C47.0319 10.424 48.6604 10.4165 50.6792 10.5441C49.9512 11.2795 49.3433 12 48.7655 12.7205C46.1539 15.9625 44.773 19.2345 45.4109 21.8987C45.1482 22.2514 44.6229 22.5216 44.1351 22.9944C43.6323 23.4747 43.1595 24.045 42.9569 24.2927C41.8011 24.1726 40.6229 24.1126 39.4146 24.1126C38.9493 24.1126 38.4916 24.1201 38.0413 24.1426C38.0563 22.469 38.1013 20.3077 38.1764 18.0788C41.4184 17.2083 44.2627 15.242 46.2139 10.8293ZM38.1989 17.1407C38.364 11.9625 38.6041 6.74672 38.6116 6.7167C38.6266 6.67167 38.8368 6.44653 39.0019 6.60413C39.167 6.76173 39.0169 7.3621 39.2345 7.93996C39.4146 8.40525 39.7974 8.70544 39.8799 8.72795C40.0675 8.77298 41.5385 7.90244 43.5948 7.93996C43.8574 8.78049 43.7674 8.803 44.2327 9.47842C44.6079 10.0188 45.2833 10.379 45.2833 10.5441C45.2833 10.9268 44.2176 12.8931 42.394 14.5816C40.848 16.0075 38.7167 16.9231 38.1989 17.1407ZM48.2477 44.7355C48.4728 44.3977 48.7355 44.0976 49.0131 43.4747C49.1107 43.2495 49.3433 43.2195 49.3809 43.1595C49.5084 42.9343 49.591 42.424 49.591 42.424C49.591 42.424 49.591 42.394 49.591 42.334L50.4991 42.349C50.454 43.7598 50.2664 45.1407 49.9437 46.4841L48.045 46.454C48.0826 46.3415 48.1051 46.2439 48.1201 46.1839C48.1651 45.9737 48.0225 45.0732 48.2477 44.7355ZM51.8649 37.3358C52.3002 37.3283 52.3002 37.2383 52.3527 37.1332C52.4653 36.9231 53.546 37.0807 53.8011 37.1557C54.0638 37.2308 54.6642 37.5159 54.8518 37.6435C55.0394 37.7711 55.3621 38.2364 55.4296 38.394C55.4972 38.5516 55.9475 39.4296 55.8649 39.6923C55.8199 39.8274 55.7824 41.4484 55.8199 41.5535C55.8274 41.5685 55.8574 41.5985 55.8949 41.6285L51.3621 41.5535H51.3471C51.2946 40.4653 51.152 39.3696 50.9268 38.2889C51.0319 38.2214 51.94 37.8311 51.8649 37.3358ZM51.3696 42.364H51.3846L56.6979 42.4615C56.6829 42.7467 56.6604 43.167 56.6379 43.5197C56.5478 44.5779 56.3752 45.5985 56.1201 46.5816L50.9343 46.4916H50.9043C51.242 45.1182 51.3846 43.7373 51.3696 42.364ZM58.9118 39.4146C58.8893 39.3321 58.7242 39.3471 58.6867 39.2796C58.6492 39.2195 58.5816 38.424 58.6867 38.439C58.7993 38.454 59.3021 37.8762 59.3846 37.7036C59.4522 37.561 59.6473 37.7936 59.7974 37.9137C59.94 38.0263 60.2402 38.5216 60.2402 38.7092C60.2402 38.7767 60.4428 38.8743 60.4053 39.0544C60.3452 39.3696 60.5253 39.6698 60.6154 39.8124C60.5403 39.94 60.4053 39.9625 60.3903 40.1201C60.3602 40.6229 60.2402 40.5929 60.1651 40.728C60.03 40.9531 59.7448 41.1782 59.6248 41.3058C59.5797 41.3508 59.5797 41.5084 59.5947 41.7036L58.7392 41.6886C58.7017 41.636 58.6792 41.591 58.6717 41.561C58.6266 41.4259 58.469 41.0507 58.7092 40.773C58.7767 40.6829 58.8743 40.6829 58.9193 40.5854C58.9644 40.4878 58.9343 39.4972 58.9118 39.4146ZM58.9493 42.6642C58.9869 42.6041 59.0244 42.5591 59.0469 42.5066L59.7148 42.5216C59.7223 42.5666 59.7298 42.5966 59.7373 42.6266C59.7148 42.7992 60.2477 42.8968 60.2852 43.0169C60.3227 43.1295 60.1951 44.03 60.3077 44.1951C60.4203 44.3527 61.7786 44.1801 62.0188 44.3077C62.2589 44.4353 62.7542 44.9681 62.7918 45.1332C62.8293 45.2983 62.7317 46.0863 62.5816 46.6942L56.818 46.5966C56.9531 45.8837 57.0281 45.1482 57.0432 44.3902C57.1632 44.2927 57.8011 43.8574 57.8462 43.5872C57.8987 43.2795 58.0413 43.0019 58.2439 42.9268C58.394 42.8743 58.6266 42.8443 58.9493 42.6642ZM60.8255 47.3471C60.6529 47.5422 60.2477 47.9099 60.1276 48.06C59.9775 48.2402 60.045 48.5178 59.7524 48.6904C59.5272 48.8255 59.2796 49.3508 59.2645 49.7186C59.257 50.0113 58.9418 50.6717 58.8143 50.7467C58.7542 50.7767 58.7017 50.8293 58.5891 50.8293C58.4766 50.8218 58.5741 51.152 58.5291 51.1895C58.4165 51.272 57.5985 51.0769 57.4634 51.1895C57.3508 51.2946 57.3358 51.3021 57.2983 51.5647L54.9569 51.5197C55.7373 50.1839 56.3227 48.773 56.6754 47.2946L60.8255 47.3471ZM50.0788 56.3152L45.2833 56.2101C46.5966 54.8518 47.6698 53.4934 48.5328 52.1276H48.5478L53.6135 52.2176C52.6454 53.681 51.4597 55.0394 50.0788 56.3152ZM50.7542 57.0507C50.5441 57.1332 50.3265 57.2083 50.1163 57.2833C50.2064 57.2007 50.2964 57.1257 50.379 57.0432L50.7542 57.0507ZM39.122 56.0826L39.242 51.9625L42.5291 52.0225C41.8912 53.4034 41.1557 54.7692 40.3377 56.1126L39.122 56.0826ZM39.8874 56.833C39.7749 57.0131 39.6623 57.1932 39.5422 57.3659C39.4071 57.3584 39.2495 57.3508 39.0844 57.3433L39.0994 56.818L39.8874 56.833ZM40.0075 28.5854C40.1201 28.5553 40.863 28.5553 40.9381 28.6154C41.0131 28.6829 41.0206 29.8086 40.9081 29.8086C40.7955 29.8086 39.7974 29.9137 39.7148 29.7711C39.6323 29.6285 39.6548 29.576 39.7448 29.5009C39.8349 29.4334 39.91 29.4559 39.9775 29.3809C40.045 29.3133 39.8949 28.6229 40.0075 28.5854ZM40.3602 26.2214C40.3377 26.2589 40.3152 26.379 40.3602 26.349C40.4053 26.319 40.4803 26.3114 40.4803 26.364C40.4803 26.4165 40.5103 26.5966 40.4653 26.6266C40.4203 26.6567 40.3827 26.5816 40.3452 26.6266C40.3077 26.6717 40.3752 26.6942 40.3302 26.7467C40.2852 26.7992 40.1351 26.7842 40.0751 26.7467C40.015 26.7092 40.0225 26.2439 40.0901 26.2214C40.1726 26.1914 40.3827 26.1764 40.3602 26.2214ZM40.1426 24.8705C40.3077 24.8705 40.4803 24.878 40.6454 24.8856C40.6454 24.8856 40.818 25.3959 40.7955 25.4409C40.7655 25.4859 40.7129 25.4409 40.6454 25.4259C40.5779 25.4034 40.4278 25.0957 40.3978 25.0356C40.3677 24.9756 40.1801 25.0732 40.1501 25.0356C40.1126 24.9906 40.1426 24.8705 40.1426 24.8705ZM42.8593 33.8462C42.9569 33.8311 43.4221 33.7861 43.3921 33.8612C43.3621 33.9437 43.3096 34.0638 43.3771 34.1163C43.4447 34.1689 43.6998 34.0638 43.7674 34.1313C43.8424 34.2064 44 34.3265 44.0225 34.409C44.045 34.4916 44.0826 35.0244 44.0225 35.0694C43.97 35.1144 43.925 35.0769 43.8724 35.0694C43.8274 35.0619 43.9099 34.9644 43.8724 34.9193C43.8349 34.8743 43.1745 34.9568 43.0919 34.8818C43.0094 34.8068 42.9719 34.7092 42.9644 34.6341C42.9569 34.5666 42.0038 34.5441 41.9287 34.5966C41.8537 34.6417 41.8537 34.8968 41.7636 34.8593C41.6735 34.8218 41.3283 34.7842 41.2383 34.8218C41.1557 34.8668 41.2533 34.9644 41.2383 34.9719C41.2233 34.9794 40.6829 35.0094 40.6079 34.9493C40.5328 34.8893 40.6304 34.8368 40.5704 34.7993C40.5103 34.7617 40.2101 34.8893 40.1651 34.7993C40.1201 34.7092 40.1501 33.7786 40.2326 33.7411C40.3152 33.7036 41.3133 33.7111 41.3884 33.7861C41.4634 33.8612 41.4484 33.9962 41.531 34.0413C41.606 34.0863 42.5666 34.0938 42.7317 34.1013C42.9193 34.1163 42.7617 33.8612 42.8593 33.8462ZM43.1895 50.4916C43.0844 50.7617 42.9719 51.0244 42.8518 51.2946L39.2645 51.227L39.3846 47.0394L42.4015 47.0844C42.4015 47.3846 42.469 47.4296 42.5366 47.4972C42.7092 47.6848 42.9193 47.8124 42.9118 48.2251C43.0394 48.3377 43.2721 48.2026 43.2946 48.2627C43.3621 48.4353 43.1445 50.2889 43.1895 50.4916ZM40.6979 42.7017C40.803 42.7617 41.5084 42.7542 41.636 42.8668C41.7636 42.9794 42.5141 43.7373 42.5291 43.8949C42.5441 44.045 42.5141 44.7205 42.5141 44.7955C42.5141 44.9006 42.0038 44.9531 42.0638 45.3959C41.9512 45.4934 41.8312 45.3959 41.8011 45.4484C41.7486 45.546 41.7486 46.0113 41.7486 46.349L39.4071 46.3114L39.5272 42.319C39.5647 42.364 40.5929 42.6417 40.6979 42.7017ZM39.4372 26.5891C39.3996 26.6116 39.3921 26.6492 39.3096 26.5891C39.227 26.5291 39.2645 26.454 39.3096 26.4465C39.3546 26.439 39.4447 26.4315 39.4522 26.454C39.4522 26.4841 39.4822 26.5741 39.4372 26.5891ZM40.1801 57.3959C40.3077 57.2083 40.4353 57.0281 40.5554 56.848L43.4672 56.9081C43.3471 57.0206 43.2195 57.1257 43.0919 57.2383C43.0769 57.2308 43.0694 57.2308 43.0544 57.2308C42.8893 57.2083 42.5891 57.1407 42.0413 57.3208C41.4934 57.4934 40.9756 57.8762 40.818 57.9362C40.6604 57.9962 40.1576 57.9362 40.1576 57.9362L40.1801 57.3959ZM41.0357 56.1201C41.9287 54.7392 42.7092 53.3734 43.257 52.03L47.5647 52.1051C46.6717 53.531 45.5685 54.8893 44.2402 56.1876L41.0357 56.1201ZM44.5629 56.9231L49.2758 57.0206C48.9306 57.3133 48.5779 57.5985 48.2176 57.8837C48.2026 57.8837 48.1951 57.8912 48.1801 57.8912C47.8274 57.9737 46.3265 57.8537 46.1539 57.8612C46.0338 57.8612 46.1238 58.0488 45.9137 58.1088C45.7036 58.1689 44.5253 58.1388 44.1726 58.0488C44.1576 57.7636 43.6323 57.7936 43.6323 57.7936C43.955 57.5009 44.2627 57.2158 44.5629 56.9231ZM54.5141 52.2401L57.1632 52.2927C57.0281 52.8931 56.788 53.6811 56.4878 54.0263C55.257 54.9043 53.8837 55.6848 52.4053 56.3602L51.1144 56.3302C52.4353 55.0319 53.591 53.6735 54.5141 52.2401ZM55.94 47.2795C55.4972 48.7655 54.8668 50.1764 54.0638 51.5047L48.9756 51.4146H48.9531C49.7561 50.0188 50.3415 48.6154 50.7317 47.212H50.7617L55.94 47.2795ZM50.1614 37.1932C50.1163 37.2683 50.1013 37.3659 50.0263 37.4034C49.9512 37.4334 49.9662 37.5159 49.8912 37.5235C49.8161 37.5385 49.8612 37.4484 49.8236 37.4034C49.7861 37.3583 49.5685 37.3508 49.5084 37.3884C49.4484 37.4259 49.4634 37.6135 49.3433 37.6435C49.2308 37.6735 48.9081 37.561 48.833 37.621C48.758 37.681 48.7505 37.8386 48.6679 37.8762C48.5854 37.9137 48.4203 37.9362 48.4053 37.8762C48.3902 37.8161 48.3452 37.4109 48.4278 37.3508C48.5103 37.2908 48.6904 37.3433 48.8255 37.3734C48.9606 37.4109 48.9531 37.1932 49.1482 37.1857C49.3433 37.1707 49.2308 37.0432 49.3584 36.9906C49.4934 36.9381 50.1163 36.9381 50.1539 37.0056C50.1989 37.0657 50.2064 37.1107 50.1614 37.1932ZM50.379 39.3846C50.3865 39.3846 50.4015 39.3771 50.409 39.3621C50.4766 40.0976 50.5141 40.8255 50.5141 41.5385L49.606 41.5235C49.606 41.3809 49.5985 41.2758 49.591 41.2383C49.576 41.1857 49.4484 41.2383 49.3809 41.1857C49.3659 40.9906 49.2233 40.9231 49.2308 40.8255C49.2383 40.6604 49.4634 40.5854 49.5835 40.3077C49.6736 40.0976 49.651 39.8424 49.6961 39.7974C49.8011 39.6923 49.9587 39.8574 50.1839 39.7523C50.1839 39.3246 50.3265 39.3996 50.379 39.3846ZM49.7561 47.1895C49.3433 48.6379 48.758 50.0413 47.9925 51.3921L43.5347 51.3096C43.5722 51.212 43.6023 51.122 43.6323 51.0244C43.6698 51.0469 43.6998 51.0544 43.7148 51.0469C43.7974 51.0019 44 50.2439 44.4053 49.8386C44.6829 49.5685 45.0807 49.5835 45.1032 49.5235C45.1632 49.3734 44.9756 48.8555 45.2383 48.788C45.6285 48.6229 46.4841 47.2946 46.7617 47.212C46.8968 47.1745 47.1069 47.167 47.3021 47.1595L49.7561 47.1895ZM46.1238 31.5797C46.1463 31.6398 46.394 31.5872 46.4465 31.6473C46.4991 31.7073 46.4615 31.8199 46.5066 31.8574C46.5441 31.8949 46.6642 31.8724 46.7242 31.9174C46.7842 31.955 46.8293 32.0826 46.7692 32.1351C46.7092 32.1951 45.7486 32.1351 45.7036 32.0976C45.6585 32.06 45.6435 31.8724 45.576 31.8274C45.5009 31.7824 45.0206 31.8574 44.9306 31.7899C44.8405 31.7298 44.8405 31.7148 44.8555 31.6098C44.8705 31.5047 44.8781 31.4522 44.9456 31.4071C45.0056 31.3621 46.0863 31.3921 46.1163 31.4522C46.1463 31.5047 46.0938 31.5197 46.1238 31.5797ZM45.3508 34.4465C45.4259 34.4015 45.3208 34.2589 45.3734 34.1989C45.4259 34.1388 45.8387 34.2289 45.8837 34.2064C45.9287 34.1839 45.8311 33.9887 45.8987 33.9512C45.9662 33.9137 46.1088 33.9062 46.1539 33.9512C46.1989 33.9962 46.1313 34.1238 46.2139 34.1689C46.2964 34.2139 46.409 34.1614 46.4165 34.2214C46.424 34.2814 46.454 35.5722 46.3715 35.6623C46.2814 35.7523 46.1614 35.7148 46.1088 35.8049C46.0488 35.8949 46.1088 36.1651 46.0788 36.2026C46.0488 36.2402 45.6135 36.2026 45.5535 36.1801C45.4934 36.1576 45.591 35.97 45.561 35.9174C45.531 35.8649 45.2683 35.9625 45.1782 35.9024C45.0882 35.8424 44.9531 35.6998 44.9231 35.6173C44.8931 35.5347 44.9831 35.2946 44.9156 35.242C44.848 35.1895 44.773 35.2946 44.7205 35.1745C44.6679 35.0544 44.6304 34.4916 44.6979 34.439C44.773 34.3865 45.2758 34.4991 45.3508 34.4465ZM47.4071 24.863C47.3171 24.9231 47.137 24.9381 46.9343 24.9456C46.1013 24.758 45.2533 24.6004 44.3902 24.4728C44.7205 23.7448 45.5235 22.8743 45.6435 22.8443C45.7711 22.8143 45.8236 22.8293 45.8987 22.8443C45.9212 22.8518 45.9963 23.4972 46.334 23.955C46.7317 24.4953 47.6548 24.7054 47.4071 24.863ZM16.9756 37.1482C17.0206 37.2158 17.0206 37.4334 17.1182 37.6585C17.1932 37.8236 17.3133 37.9587 17.3358 37.9737C17.3884 38.0038 17.6435 37.9062 17.7636 37.9737C17.8837 38.0413 17.9963 38.349 18.2889 38.6417C18.6041 38.9493 18.9794 39.182 19.0244 39.212C19.1069 39.2645 19.5722 39.257 19.6623 39.212C19.7523 39.167 19.7523 39.0394 19.8649 38.9869C19.9775 38.9343 21.0131 39.0094 21.0131 39.0094C20.9831 39.7073 20.9681 40.3827 20.9756 41.0356L15.3471 40.9381C15.4522 39.6548 15.7599 38.409 16.2477 37.2158C16.2927 37.2083 16.9306 37.0807 16.9756 37.1482ZM15.8949 32.7205C15.955 32.5553 17.0432 32.5178 17.9212 32.2702C18.2589 32.1726 18.5816 32.0525 18.8518 31.94C18.1764 32.6529 17.5685 33.4034 17.0356 34.1914C16.5929 33.9137 15.7448 33.1257 15.8949 32.7205ZM20.9906 41.7861C21.0357 43.3096 21.1857 44.7129 21.4184 46.0038L15.955 45.9137C15.5272 44.6454 15.3021 43.3246 15.3021 41.9662C15.3021 41.8687 15.3021 41.7786 15.3021 41.6811L20.9906 41.7861ZM21.576 46.7842C21.9062 48.3302 22.3565 49.7111 22.8968 50.9268L18.8368 50.8518C17.7336 49.5685 16.8555 48.1801 16.2552 46.7017L21.576 46.7842ZM27.197 33.2608C27.197 33.3809 27.3246 34.394 27.3921 34.4615C27.4597 34.5291 28.0901 34.5591 28.1726 34.5066C28.2552 34.4465 28.6604 33.8912 28.7805 33.3358C29.2458 33.4784 29.1707 32.9306 29.1707 32.9306L29.5685 32.9606C28.9831 33.8462 28.4878 35.1069 28.0525 36.5403L27.1895 36.5178C27.272 36.3752 27.3996 36.3902 27.4146 36.3377C27.4747 36.1426 27.5872 35.0544 27.4972 35.0094C27.4221 34.9719 26.8968 35.152 26.9719 34.7542C26.8218 34.7092 26.5966 34.7617 26.5741 34.7392C26.5216 34.6717 26.5591 34.424 26.6417 34.3715C26.7242 34.319 26.7692 34.4165 26.8518 34.3715C26.9343 34.3265 26.9118 31.7974 26.9418 31.7148C26.9719 31.6323 27.4447 31.6698 27.4972 31.7148C27.5497 31.7598 27.5497 32.075 27.4747 32.1351C27.4071 32.2026 27.2195 32.045 27.2045 32.1051C27.182 32.1651 27.1895 33.1407 27.197 33.2608ZM31.7523 26.1839C31.6998 26.1238 31.3696 26.2139 31.2946 26.1689C31.2195 26.1238 31.257 25.8687 31.257 25.8687C31.4296 25.8236 31.6098 25.7786 31.7824 25.7411C31.7824 25.7411 32.2326 25.8612 32.2927 25.9362C32.3527 26.0113 32.7955 26.424 32.6829 26.4765C32.5704 26.5291 31.8124 26.4916 31.7523 26.439C31.6998 26.3865 31.8124 26.2439 31.7523 26.1839ZM31.4897 31.3846C31.6173 31.212 31.6023 30.9719 31.6248 30.9343C31.6773 30.8293 32.2852 30.9268 32.3752 30.8368C32.4653 30.7467 32.3602 30.6041 32.4278 30.454C32.4953 30.3189 32.6529 30.2739 32.6604 30.1463C33.0507 30.2364 33.2233 30.0638 33.3358 29.9362C33.4484 29.8011 33.3959 28.3752 33.6135 28.3752C33.7561 28.3752 34.7692 28.3227 34.8518 28.3752C34.9343 28.4278 34.8293 29.1782 34.8518 29.3133C34.8743 29.4709 35.0394 29.6735 35.4522 29.651C35.8649 29.6285 36.03 29.2383 36.1651 29.2008C36.1876 29.1932 36.2402 29.1932 36.3077 29.1932C35.7824 30.1839 35.3171 31.182 34.9118 32.1801L30.7917 32.06C30.9644 31.9925 30.8893 31.7749 30.9418 31.5797C31.212 31.6098 31.3921 31.5197 31.4897 31.3846ZM34.9644 25.3659C34.7993 25.3583 34.5591 25.4259 34.5441 25.4334C34.349 25.5685 34.1764 26.0188 34.0263 26.1238C33.8762 26.2289 33.2308 25.4334 33.2308 25.4334C33.8987 25.3058 34.5816 25.2008 35.2645 25.1182C35.2796 25.1182 35.137 25.3734 34.9644 25.3659ZM35.3096 26.8293C35.3621 26.8218 35.4447 26.8143 35.4522 26.8368C35.4522 26.8668 35.4822 26.9493 35.4372 26.9719C35.3996 26.9944 35.3921 27.0319 35.3096 26.9719C35.227 26.9118 35.2645 26.8368 35.3096 26.8293ZM33.7111 27.4447C33.666 27.4747 33.5835 27.4822 33.576 27.4447C33.5685 27.4071 33.6735 27.1295 33.7111 27.227C33.7561 27.3246 33.7636 27.4071 33.7111 27.4447ZM36.3227 38.5741C36.3452 38.7017 36.5403 38.7692 36.6079 38.9343C36.6679 39.0994 36.6004 39.3621 36.5929 39.5347C36.5929 39.6248 36.818 39.5572 36.833 39.5722C36.9156 39.6323 36.7955 39.955 36.9231 40.1201C37.0432 40.2852 37.2908 40.3002 37.7111 40.5478C38.0263 40.728 38.2514 41.0957 38.5966 41.1182C38.6717 41.1407 38.7617 41.2233 38.8593 41.3358L33.6735 41.2458C33.7336 39.9475 33.8912 38.6567 34.1463 37.3734L36.6529 37.4559C36.6529 37.4559 36.6604 38.3039 36.6154 38.3715C36.5779 38.4615 36.2702 38.3265 36.3227 38.5741ZM38.1463 36.3452C38.0638 36.4428 37.5835 36.7955 37.5835 36.7955L34.2889 36.7054C34.5741 35.4296 34.9644 34.1614 35.4372 32.9006L37.7711 32.9831C37.8236 33.3208 37.9137 33.8837 37.9287 33.9662C37.9512 34.0788 38.0413 35.0394 38.0563 35.2495C38.0788 35.4597 38.2589 36.2176 38.1463 36.3452ZM34.6417 32.8705C34.1689 34.1313 33.7861 35.4071 33.5009 36.6829L28.7355 36.5553C29.2383 34.9568 29.8011 33.6435 30.364 32.7205L34.6417 32.8705ZM29.651 49.0281C29.4259 48.8705 29.3734 48.6754 29.4184 48.3452C29.4409 48.1876 29.6585 48.2176 29.6811 48.0675C29.7636 47.4597 29.9887 47.2871 30.1088 47.182C30.2514 47.0544 30.9719 46.9719 31.2345 46.9268L33.2008 46.9568H33.2458C33.4859 48.3452 33.8387 49.7411 34.3039 51.1445H34.2814L30.8743 51.0844C30.6792 50.8443 30.4841 50.6116 30.4165 50.5816C30.2664 50.5066 29.6961 49.7561 29.651 49.5009C29.6285 49.4184 29.7186 49.2233 29.651 49.0281ZM31.5947 45.651C31.5422 45.4709 30.9719 45.1257 30.9043 44.9156C30.8443 44.7054 31.0919 43.4146 31.0544 43.3171C31.0169 43.2195 30.7242 43.3096 30.6567 43.0394C30.5666 42.6792 30.334 42.4465 30.2889 42.3415C30.2589 42.2664 30.2289 42.1238 30.2139 41.9662L32.7955 42.0188H32.8555C32.833 43.4071 32.9156 44.803 33.1182 46.2064H33.0657L31.6098 46.1839C31.6548 45.9437 31.6173 45.7186 31.5947 45.651ZM32.8856 41.2383H32.8255L29.9512 41.1857C29.7636 41.0356 29.5084 40.8405 29.4334 40.7505C29.3884 40.6979 29.4784 40.4278 29.4334 40.1351C29.0882 39.9024 29.0957 39.3846 28.9531 39.3321C28.878 39.3021 28.4653 39.2946 28.0225 39.2871C28.1876 38.5516 28.3602 37.8462 28.5553 37.1857L33.3734 37.3508C33.1032 38.6417 32.9456 39.9325 32.8856 41.2383ZM30.3265 29.9437C30.2589 30.0263 30.2289 30.0038 30.1764 30.0863C30.1163 30.1689 29.9362 30.1764 29.8161 30.2814C29.7561 30.334 29.7561 30.5666 29.651 30.7242C29.546 30.8893 29.3508 30.9869 29.2908 30.9944C29.1857 31.0094 29.2158 30.5816 29.2383 30.454C29.2608 30.334 29.3358 30.1914 29.3809 30.1463C29.4259 30.1013 29.4934 29.9737 29.531 29.8086C29.5685 29.6435 30.0113 29.2083 30.0788 29.1557C30.1463 29.1032 30.319 29.1182 30.349 29.1707C30.379 29.2233 30.394 29.8612 30.3265 29.9437ZM29.2533 31.2345C29.3433 31.2495 29.3133 31.4296 29.4259 31.5047C29.531 31.5797 30.2139 31.4672 30.2664 31.5422C30.319 31.6173 30.2964 31.7598 30.2514 31.8124C30.1989 31.8649 30.0713 31.7899 30.0188 31.8724C29.9662 31.9625 29.8762 32.3002 29.8387 32.3302C29.8011 32.3602 29.4259 32.3527 29.3283 32.3077C29.2308 32.2627 29.2383 32.2326 29.2158 32.1501C29.2008 32.0675 29.3508 31.8724 29.3283 31.7599C29.3058 31.6473 29.0882 31.4822 29.0882 31.3846C29.0807 31.2946 29.1632 31.2195 29.2533 31.2345ZM22.2739 45.1257C22.6266 45.2608 22.4615 45.5685 22.5291 45.6735C22.6041 45.7861 22.7167 45.9212 22.8143 46.0263L22.2139 46.0188C22.0188 45.0657 21.8837 44.0826 21.8236 43.0769C22.0113 43.5497 22.2589 44.1801 22.2814 44.2552C22.3114 44.3752 22.2364 44.803 22.2739 45.1257ZM23.7599 46.8143C24.2026 47.167 24.6979 47.5497 24.7655 47.6022C24.8931 47.6923 25.1407 47.5422 25.2083 47.6248C25.2758 47.7073 25.1182 48.06 25.1932 48.1351C25.2683 48.2026 25.6585 48.0901 25.7186 48.1876C25.7711 48.2777 25.636 48.6079 25.7336 48.8255C25.8311 49.0432 26.0563 49.2233 26.1614 49.5235C26.2589 49.8011 26.2289 50.2214 26.349 50.2589C26.5291 50.319 27.0019 50.7692 26.9418 50.8443C26.9193 50.8668 26.9043 50.9268 26.8968 51.0019L23.8949 50.9493C23.2645 49.6585 22.7467 48.2627 22.3865 46.7992L23.7599 46.8143ZM26.8143 39.2495C26.7917 39.1895 26.8593 37.2683 26.9118 37.1332L27.8649 37.1632C27.6773 37.8462 27.4972 38.5516 27.3321 39.2796C27.0394 39.2796 26.8218 39.2645 26.8143 39.2495ZM26.5516 35.4597C26.4991 35.5797 26.364 35.5347 26.3114 35.6398C26.2514 35.7448 26.3114 36.4953 26.2664 36.5629C26.2214 36.6304 25.6735 36.5779 25.4334 36.6229C25.1932 36.6679 24.6079 36.6229 24.5629 36.5103C24.5178 36.3977 24.773 35.925 24.8555 35.8724C24.9381 35.8199 25.3884 35.9099 25.4709 35.8724C25.5535 35.8349 25.5535 35.6773 25.6735 35.6173C25.8086 35.5497 25.9887 35.6023 26.0338 35.5797C26.1238 35.5347 26.5066 35.0844 26.5666 35.1295C26.6266 35.1745 26.5966 35.3396 26.5516 35.4597ZM24.7054 39.1745C24.7955 39.0994 25.0807 39.122 25.1032 39.1745C25.1107 39.197 24.9681 39.4146 24.9681 39.6248C24.9681 39.955 25.1182 40.3152 25.1032 40.3677C25.0732 40.4503 24.6904 40.3302 24.5103 40.3527C24.1126 40.6379 23.6998 40.5478 23.3546 40.5478C23.257 40.8105 23.227 40.8405 22.8593 40.8705C22.8368 40.9231 22.8143 41.0056 22.7993 41.0732L21.8086 41.0582C21.8311 40.5779 21.8687 40.0976 21.9287 39.6098C22.1313 39.6848 22.3865 39.7448 22.7392 39.7598C23.0919 39.7749 23.5797 39.7899 24.1351 39.6323C24.5178 39.5122 24.6679 39.2045 24.7054 39.1745ZM23.242 51.6698C24.0751 53.3433 25.0807 54.7092 26.1538 55.8124L25.2533 55.7974C23.0169 54.6417 21.0732 53.2233 19.5122 51.6022L23.242 51.6698ZM24.2777 51.6848L27.0694 51.7373C27.272 51.8649 27.6473 52.0075 27.6998 52.0826C27.7674 52.1801 27.6173 52.3978 27.9024 52.4728C28.1876 52.5478 28.6679 52.5028 28.7205 52.5478C28.7655 52.5854 29.1482 53.1182 29.666 53.591C30.2739 54.1388 31.0394 54.6341 31.2796 54.6642C31.5197 54.7092 31.6623 54.7467 31.955 54.7392C32.2702 55.1595 32.5929 55.5722 32.9306 55.955L27.3246 55.8349C26.1839 54.6867 25.1407 53.2833 24.2777 51.6848ZM26.9418 56.5704L28.1351 56.5929L33.6285 56.7054C33.9062 56.9831 34.1914 57.2383 34.4766 57.4559C34.439 57.4634 34.409 57.4709 34.394 57.4784C34.2964 57.5535 34.364 57.621 34.2289 57.6961C34.1539 57.7336 33.9737 57.6585 33.9137 57.7561C33.7636 58.0037 33.7336 58.2814 33.4034 58.5291C31.97 58.2664 30.5891 57.9137 29.2758 57.4784C28.4503 57.2083 27.6548 56.9006 26.8893 56.5704H26.9418ZM33.8462 55.97C33.4634 55.5572 33.0882 55.1295 32.743 54.7017C32.758 54.6041 32.6979 54.394 32.4203 54.1163C32.1126 53.8086 31.7448 53.7411 31.6473 53.6285C31.5422 53.5159 31.7148 53.3283 31.6248 53.0131C31.4972 52.9006 31.3996 52.8705 31.3846 52.7805C31.3546 52.5854 31.3396 52.0675 31.3396 51.8124L34.5441 51.8724H34.5591C35.0544 53.2533 35.6623 54.6341 36.3827 56.0225L33.8462 55.97ZM34.0488 46.9644L38.7467 47.0319L38.6266 51.2195L35.122 51.152C34.6492 49.7486 34.2889 48.3527 34.0488 46.9644ZM33.9287 46.2139C33.7261 44.8105 33.636 43.4146 33.6585 42.0263L38.8968 42.1238L38.7767 46.2889L33.9287 46.2139ZM38.1539 27.5497C38.2514 27.5197 38.319 27.3696 38.4165 27.3696C38.5066 27.3696 38.4315 27.5572 38.469 27.5947C38.4991 27.6323 38.5816 27.5572 38.6041 27.6173C38.6191 27.6773 38.6417 27.8274 38.5891 27.8799C38.5366 27.9325 38.0938 27.9024 38.0563 27.8574C38.0188 27.8124 38.0563 27.5722 38.1539 27.5497ZM38.1463 32.0225C38.1539 32.0826 38.1088 32.1726 38.0413 32.2777L35.7073 32.2101C36.1051 31.227 36.5629 30.2439 37.0807 29.2683C37.1557 29.2758 37.2008 29.2833 37.2008 29.2833C37.2908 29.2683 37.3884 29.7111 37.3208 30.1914C37.6135 30.3189 37.5535 30.6266 37.531 30.7392C37.4859 30.9343 37.7711 31.4146 37.7936 31.5122C37.8161 31.6173 38.1313 31.94 38.1463 32.0225ZM33.6435 16.4353C35.0394 17.4634 37.0732 17.9212 37.0732 17.9212L36.9081 24.2026C35.3846 24.3152 33.9062 24.5178 32.4803 24.818C31.7824 24.5704 31.1595 24.03 30.5741 23.2871C30.4766 22.8668 30.349 22.6191 29.9362 22.2589C29.1707 22.2364 28.6304 21.591 28.2477 20.848L28.3377 18.3865C28.1726 17.6811 27.6698 16.8931 27.4897 16.5854C27.3096 16.2777 27.4447 15.7298 27.6473 15.4672C27.8499 15.2045 28.3527 15.5122 28.818 15.3771C29.0281 15.3171 29.6735 15.0694 30.2214 14.7317C30.8593 14.334 31.1069 13.8462 31.3996 13.8462C31.5272 13.8462 32.2702 15.4221 33.6435 16.4353ZM28.1201 21.9887C28.8105 22.9794 29.8387 24.045 31.0619 25.1482C27.5497 26.0488 24.4053 27.4972 21.8311 29.3508C22.6417 28.4428 23.2045 27.4296 23.3696 25.9587C23.4221 25.5159 23.8799 25.1782 23.9325 24.6979C25.7711 24.8405 27.182 23.9775 28.1201 21.9887ZM20.4428 29.3058C18.6567 31.0919 15.8724 31.9925 15.3096 31.955C14.1839 31.8949 12.1201 28.7955 12.2852 28.5253C12.3677 28.3902 14.9569 27.9325 16.6454 26.6867C18.2364 25.5084 18.9343 23.5347 19.0619 23.4972C19.3246 23.4296 22.9493 24.4578 22.9869 24.7204C23.0094 24.8555 22.2289 27.5272 20.4428 29.3058ZM15.4597 26.409C14.5066 27.0394 13.4709 27.2796 11.9099 27.5797C11.6998 26.469 10.4315 24.2627 9.2833 22.7242C10.3865 23.4296 12.1651 24.2552 13.7711 24.3302C15.7674 24.4278 17.5084 23.6848 17.576 23.8349C17.6435 24.0075 16.9681 25.4109 15.4597 26.409ZM9.50094 25.2608C9.66604 25.6811 9.56848 26.0638 9.72608 26.3415C9.94372 26.7167 10.2364 26.8968 10.4991 27.2045C10.8668 27.6248 11.212 28.1501 11.4146 28.5028C11.5497 28.743 11.6248 29.7786 11.955 30.349C12.4803 31.2495 13.3058 31.7373 13.3058 31.8424C13.3058 31.925 12.4578 32.5478 11.3321 33.1707C10.0188 33.8987 8.39024 34.6341 8.29268 34.6341C8.18762 34.6341 8.60788 33.0507 8.4803 31.8649C8.37524 30.9118 7.82739 30.349 7.73734 30.0638C7.64728 29.7786 7.6848 29.3884 7.54221 29.1557C7.3621 28.863 6.90432 28.6529 6.7242 28.5103C6.40901 28.2477 5.82364 27.8724 5.82364 27.4897C5.82364 27.3021 6.76173 26.5516 7.36961 25.561C8 24.5178 8.30019 23.2345 8.39025 23.2345C8.51032 23.242 9.1257 24.3152 9.50094 25.2608ZM11.1445 34.4916C12.8105 33.7411 13.9137 32.6979 14.1839 32.6979C14.4165 32.6979 14.8293 33.4034 15.3096 33.8762C15.7974 34.364 16.3152 34.7617 16.5553 34.9343C16.6454 35.0019 16.6979 35.0394 16.6979 35.0394C16.6979 35.0394 16.5704 35.1144 16.3827 35.2345C16.0976 35.4221 15.6623 35.7148 15.2645 36.0375C14.7167 36.4878 14.2664 37.0281 14.2589 37.1182C14.2439 37.3283 14.334 37.3433 14.0563 37.5685C13.9212 37.681 13.3959 37.4184 12.9906 37.561C12.5779 37.7111 12.2777 38.2664 11.8274 38.2664C11.4146 38.2664 11.272 37.7711 10.9719 37.6285C10.6191 37.4559 10.0638 37.4559 9.92871 37.2833C9.79362 37.1107 9.47092 36.6004 9.04315 36.4653C8.69043 36.3527 8.15009 36.3602 7.97749 36.2402C7.59475 35.9775 7.17448 36.0976 7.13696 35.8649C7.12195 35.7598 9.41839 35.272 11.1445 34.4916ZM14.1839 38.3865C14.6417 38.1013 15.0544 37.7486 15.3471 37.4784C14.8293 38.9118 14.5591 40.4128 14.5591 41.9662C14.5591 42.0638 14.5591 42.1614 14.5591 42.2664C14.2589 41.9512 13.5835 41.2158 13.4034 40.8931C13.1782 40.4728 13.1257 40.0976 13.0131 39.9325C12.9006 39.7674 12.6604 39.8874 12.6604 39.167C12.6679 38.8743 13.576 38.7692 14.1839 38.3865ZM36.6154 57.2908C36.5103 57.3659 36.5478 57.4484 36.4878 57.5235C36.4278 57.5985 35.4747 57.4859 35.4747 57.4859C35.182 57.2608 34.8818 56.9981 34.5891 56.7204L36.7805 56.7655C36.8705 56.9306 36.9681 57.1032 37.0657 57.2758C36.8105 57.2683 36.6379 57.2758 36.6154 57.2908ZM35.3771 51.8874L38.6041 51.9475L38.4841 56.0675L37.2158 56.0375C36.4878 54.6492 35.8724 53.2683 35.3771 51.8874ZM38.4615 56.803L38.4465 57.3133C38.2589 57.3058 38.0788 57.2983 37.8987 57.2908C37.8011 57.1182 37.7036 56.9531 37.6135 56.7805L38.4615 56.803ZM64.2777 35.6248C63.5197 35.4522 62.7242 35.1295 62.2739 34.9343C59.9925 31.1069 55.8949 27.97 50.7692 26.0788L51.9325 25.7411C51.9325 25.7411 52.8856 25.5159 53.8462 24.803C54.319 24.4503 54.334 23.9625 54.6942 23.5047C55.0544 23.0544 55.7599 22.6341 56.2552 22.0638C56.6079 21.666 57.2233 21.4259 57.531 20.9006C57.8912 20.2777 57.9212 19.3621 58.1689 18.8968C58.7242 17.8537 59.4372 17.1932 59.5047 17.2083C59.7899 17.2683 59.6548 18.3865 59.6548 18.3865C58.6942 19.0019 57.3659 22.8743 57.3659 22.8743C57.3659 22.8743 56.9756 24.2852 56.8705 25.7261C56.758 27.1895 57.0206 28.7129 57.1557 28.848C57.4184 29.1257 57.9062 29.5385 58.1088 29.5009C58.3039 29.4559 58.5291 29.3358 58.6116 28.9756C58.6942 28.6154 58.1163 27.8649 57.7636 27.3471C57.9137 23.7148 58.8293 21.2233 60.3677 19.0244C61.1782 20.1351 62.4315 20.818 64.1426 21.0432C59.8799 27.3471 62.0413 29.9737 68.4953 29.8612C68.4953 29.8612 68.5403 30.1914 68.4203 30.3039C68.3002 30.4165 63.7523 30.9193 62.7017 32.1201C62.4766 32.3977 62.4165 32.6154 62.4465 32.7655C62.4766 32.9231 62.4691 33.1632 63.2946 32.9681C64.3077 32.4053 67.0244 31.2645 68.8255 31.242C68.8255 31.242 68.9456 32.5403 69.8161 33.5084C70.5666 34.3415 72.0826 34.8518 72.0826 34.9869C72.0826 35.272 71.6098 35.7598 71.4071 35.8949C71.197 36.015 65.4184 35.8799 64.2777 35.6248ZM69.9437 27.4897C69.3283 28.2477 69.2833 29.1632 69.1707 29.2158C68.9081 29.3283 66.8293 29.0807 66.8293 29.0807C62.6642 28.5178 62.0188 25.9287 64.9681 21.2533C67.4447 21.3959 69.1107 21.0957 69.7561 20.2402C69.7561 20.2402 69.4334 21.4784 69.4334 22.1013C69.4334 22.7242 69.7336 23.3546 70.4991 24.3302C71.2645 25.3058 72 25.8161 72 25.8161C72 25.8161 70.6792 26.5816 69.9437 27.4897ZM35.8574 68.03C35.5122 68.7205 33.9137 70.2739 32.4803 71.8199C31.0094 73.4034 29.7036 74.9644 29.4409 74.9869C28.9231 75.0469 28.7805 74.1463 29.1557 73.561C29.531 72.9756 30.7092 72.5403 32.3677 70.9944C34.0188 69.4409 35.7674 67.3621 35.8574 67.3921C36.03 67.4522 36.0976 67.3471 35.8574 68.03Z" fill="white"/>
</svg>
